<svg width="400" height="400" viewBox="0 0 400 400" fill="none" xmlns="http://www.w3.org/2000/svg">
<rect width="400" height="400" rx="200" fill="#5A67D8" fill-opacity="0.05"/>
<path d="M50 200C50 117.157 117.157 50 200 50V50C282.843 50 350 117.157 350 200V200C350 282.843 282.843 350 200 350V350C117.157 350 50 282.843 50 200V200Z" fill="#5A67D8" fill-opacity="0.15"/>
<rect x="100" y="100" width="200" height="200" rx="100" fill="#5A67D8" fill-opacity="0.25"/>
<g filter="url(#filter0_d)">
<rect x="150" y="150" width="100" height="100" rx="50" fill="white"/>
</g>
<g clip-path="url(#clip0)">
<path d="M188.396 197.124V210.572" stroke="#5A67D8" stroke-width="3" stroke-linecap="round"/>
<path d="M179.96 191.828V205.276" stroke="#5A67D8" stroke-width="3" stroke-linecap="round"/>
<path d="M201.116 177.821L186.118 187.586" stroke="#667EEA" stroke-width="3" stroke-linecap="round"/>
<path d="M216.143 188.745L200.207 198.345" stroke="#667EEA" stroke-width="3" stroke-linecap="round"/>
<path d="M219.76 202.483L212.042 207.283" stroke="#667EEA" stroke-width="3" stroke-linecap="round"/>
<path d="M220.073 202.317V191.156C220.073 189.539 219.155 188.03 217.63 187.143L201.325 177.655" stroke="#667EEA" stroke-width="3" stroke-linecap="round"/>
<path d="M210.34 216.469C210.34 219.707 207.364 222.345 203.675 222.345C199.987 222.345 197.011 219.707 197.011 216.469C197.011 213.231 199.987 210.593 203.675 210.593C207.364 210.593 210.34 213.231 210.34 216.469Z" stroke="#5A67D8" stroke-width="3"/>
<path d="M196.91 215.954V204.198C196.91 202.597 196.01 201.102 194.511 200.211L179.96 191.559" stroke="#5A67D8" stroke-width="3" stroke-linecap="round"/>
</g>
<defs>
<filter id="filter0_d" x="146" y="150" width="108" height="108" filterUnits="userSpaceOnUse" color-interpolation-filters="sRGB">
<feFlood flood-opacity="0" result="BackgroundImageFix"/>
<feColorMatrix in="SourceAlpha" type="matrix" values="0 0 0 0 0 0 0 0 0 0 0 0 0 0 0 0 0 0 127 0"/>
<feOffset dy="4"/>
<feGaussianBlur stdDeviation="2"/>
<feColorMatrix type="matrix" values="0 0 0 0 0 0 0 0 0 0 0 0 0 0 0 0 0 0 0.25 0"/>
<feBlend mode="normal" in2="BackgroundImageFix" result="effect1_dropShadow"/>
<feBlend mode="normal" in="SourceGraphic" in2="effect1_dropShadow" result="shape"/>
</filter>
<clipPath id="clip0">
<rect width="43.8519" height="48" fill="white" transform="translate(178 176)"/>
</clipPath>
</defs>
</svg>
