<svg width="783" height="264" viewBox="0 0 783 264" fill="none" xmlns="http://www.w3.org/2000/svg">
<path d="M54.7186 116.703V190.408" stroke="#5A67D8" stroke-width="20" stroke-linecap="round"/>
<path d="M10.4914 87.6741V161.379" stroke="#5A67D8" stroke-width="20" stroke-linecap="round"/>
<path d="M121.4 10.9071L42.7739 64.4285" stroke="#7F9CF5" stroke-width="20" stroke-linecap="round"/>
<path d="M205.516 68.9642L121.976 121.579" stroke="#7F9CF5" stroke-width="20" stroke-linecap="round"/>
<path d="M219.139 146.071L178.682 172.379" stroke="#7F9CF5" stroke-width="20" stroke-linecap="round"/>
<path d="M220.782 145.164V86.0942C220.782 75.9709 215.503 66.5803 206.854 61.3188L122.499 10" stroke="#7F9CF5" stroke-width="19" stroke-linecap="round"/>
<path d="M169.537 222.725C169.537 239.258 154.763 254 134.819 254C114.875 254 100.1 239.258 100.1 222.725C100.1 206.192 114.875 191.45 134.819 191.45C154.763 191.45 169.537 206.192 169.537 222.725Z" stroke="#5A67D8" stroke-width="20"/>
<path d="M99.3507 219.903V157.554C99.3507 147.53 94.1738 138.217 85.6603 132.925L10.4915 86.2" stroke="#5A67D8" stroke-width="19" stroke-linecap="round"/>
<path d="M265.945 86.4545V165H284.43V116.484H285.082L303.952 164.501H315.764L334.634 116.753H335.286V165H353.771V86.4545H330.261L310.318 135.085H309.398L289.455 86.4545H265.945ZM403.62 139.572C403.62 146.438 399.248 150.273 393.686 150.273C387.934 150.273 384.405 146.361 384.367 139.956V106.091H365.613V143.638C365.651 156.946 373.743 165.767 385.863 165.767C394.684 165.767 401.242 161.241 403.85 154.031H404.463V165H422.336V106.091H403.62V139.572ZM485.703 124.078C484.706 112.419 475.156 105.324 459.202 105.324C443.247 105.324 433.084 112.266 433.161 124.078C433.084 133.129 438.875 138.959 450.649 141.145L460.928 143.101C465.798 144.06 468.023 145.594 468.099 148.202C468.023 151.155 464.724 153.111 459.93 153.111C454.599 153.111 450.994 150.81 450.189 146.514L431.665 146.974C433.007 158.634 443.017 166.112 459.854 166.112C475.616 166.112 487.084 158.25 487.161 146.131C487.084 137.54 481.408 132.439 469.672 130.176L458.32 128.028C453.334 127.031 451.723 125.267 451.761 123.004C451.723 120.013 455.213 118.172 459.547 118.172C464.494 118.172 467.946 120.818 468.483 124.538L485.703 124.078ZM496.394 165H515.148V106.091H496.394V165ZM505.79 99.2259C511.121 99.2259 515.417 95.1989 515.417 90.2514C515.417 85.304 511.121 81.3153 505.79 81.3153C500.498 81.3153 496.164 85.304 496.164 90.2514C496.164 95.1989 500.498 99.2259 505.79 99.2259ZM554.584 166.112C571.152 166.112 581.43 156.486 581.929 141.912H564.402C563.712 148.163 559.953 151.577 554.814 151.577C548.217 151.577 543.922 146.016 543.922 135.545C543.922 125.152 548.256 119.591 554.814 119.591C560.183 119.591 563.673 123.234 564.402 129.256H581.929C581.507 114.759 570.922 105.324 554.545 105.324C536.021 105.324 524.822 117.673 524.822 135.737C524.822 153.724 535.945 166.112 554.584 166.112ZM591.527 165H610.089V155.45H610.664C613.042 160.896 618.335 165.844 627.233 165.844C640.272 165.844 650.781 155.642 650.781 135.584C650.781 114.797 639.659 105.324 627.348 105.324C618.028 105.324 612.927 110.77 610.664 116.178H610.281V86.4545H591.527V165ZM609.897 135.545C609.897 125.919 613.886 119.974 620.751 119.974C627.693 119.974 631.528 126.072 631.528 135.545C631.528 145.057 627.693 151.232 620.751 151.232C613.886 151.232 609.897 145.095 609.897 135.545ZM688.107 166.112C706.631 166.112 717.869 153.878 717.869 135.737C717.869 117.558 706.631 105.324 688.107 105.324C669.583 105.324 658.346 117.558 658.346 135.737C658.346 153.878 669.583 166.112 688.107 166.112ZM688.222 151.96C681.281 151.96 677.445 145.364 677.445 135.622C677.445 125.842 681.281 119.207 688.222 119.207C694.934 119.207 698.769 125.842 698.769 135.622C698.769 145.364 694.934 151.96 688.222 151.96ZM741.321 106.091H722.298L738.56 135.545L721.455 165H740.477L751.024 145.44L761.839 165H780.594L763.527 135.545L779.98 106.091H761.072L751.024 125.497L741.321 106.091Z" fill="#5A67D8"/>
</svg>
