<svg width="836" height="260" viewBox="0 0 836 260" fill="none" xmlns="http://www.w3.org/2000/svg">
<path d="M51.3704 115.022V187.567" stroke="#2D3748" stroke-width="20" stroke-linecap="round"/>
<path d="M10.4546 86.4509V158.996" stroke="#2D3748" stroke-width="20" stroke-linecap="round"/>
<path d="M113.059 10.8928L40.3199 63.5714" stroke="#A0AEC0" stroke-width="20" stroke-linecap="round"/>
<path d="M190.877 68.0356L113.592 119.821" stroke="#A0AEC0" stroke-width="20" stroke-linecap="round"/>
<path d="M203.48 143.929L166.052 169.821" stroke="#A0AEC0" stroke-width="20" stroke-linecap="round"/>
<path d="M205 143.036V84.6245C205 74.7888 200.015 65.6234 191.757 60.2791L114.076 10" stroke="#A0AEC0" stroke-width="19" stroke-linecap="round"/>
<path d="M156.844 219.375C156.844 236.118 142.971 250 125.473 250C107.976 250 94.1028 236.118 94.1028 219.375C94.1028 202.632 107.976 188.75 125.473 188.75C142.971 188.75 156.844 202.632 156.844 219.375Z" stroke="#2D3748" stroke-width="20"/>
<path d="M92.6607 216.597V154.954C92.6607 145.22 87.7768 136.135 79.6574 130.766L10.4546 85" stroke="#2D3748" stroke-width="19" stroke-linecap="round"/>
<path d="M261.605 69.7273V157H282.145V103.094H282.869L303.835 156.446H316.96L337.926 103.392H338.651V157H359.19V69.7273H333.068L310.909 123.761H309.886L287.727 69.7273H261.605ZM414.577 128.747C414.577 136.375 409.719 140.636 403.54 140.636C397.148 140.636 393.228 136.29 393.185 129.173V91.5455H372.347V133.264C372.39 148.051 381.381 157.852 394.847 157.852C404.648 157.852 411.935 152.824 414.833 144.812H415.515V157H435.373V91.5455H414.577V128.747ZM505.781 111.531C504.673 98.5767 494.062 90.6932 476.335 90.6932C458.608 90.6932 447.315 98.4062 447.401 111.531C447.315 121.588 453.75 128.065 466.832 130.494L478.253 132.668C483.665 133.733 486.136 135.438 486.222 138.335C486.136 141.616 482.472 143.79 477.145 143.79C471.222 143.79 467.216 141.233 466.321 136.46L445.739 136.972C447.23 149.926 458.352 158.236 477.06 158.236C494.574 158.236 507.315 149.5 507.401 136.034C507.315 126.489 501.009 120.821 487.969 118.307L475.355 115.92C469.815 114.812 468.026 112.852 468.068 110.338C468.026 107.014 471.903 104.969 476.719 104.969C482.216 104.969 486.051 107.909 486.648 112.043L505.781 111.531ZM517.66 157H538.498V91.5455H517.66V157ZM528.1 83.9176C534.023 83.9176 538.796 79.4432 538.796 73.946C538.796 68.4489 534.023 64.017 528.1 64.017C522.219 64.017 517.404 68.4489 517.404 73.946C517.404 79.4432 522.219 83.9176 528.1 83.9176ZM582.315 158.236C600.724 158.236 612.145 147.54 612.699 131.347H593.224C592.457 138.293 588.281 142.085 582.571 142.085C575.241 142.085 570.469 135.906 570.469 124.273C570.469 112.724 575.284 106.545 582.571 106.545C588.537 106.545 592.415 110.594 593.224 117.284H612.699C612.23 101.176 600.469 90.6932 582.273 90.6932C561.69 90.6932 549.247 104.415 549.247 124.486C549.247 144.472 561.605 158.236 582.315 158.236ZM623.363 157H643.988V146.389H644.627C647.269 152.44 653.15 157.938 663.036 157.938C677.525 157.938 689.201 146.602 689.201 124.315C689.201 101.219 676.843 90.6932 663.164 90.6932C652.809 90.6932 647.141 96.7443 644.627 102.753H644.201V69.7273H623.363V157ZM643.775 124.273C643.775 113.577 648.207 106.972 655.835 106.972C663.548 106.972 667.809 113.747 667.809 124.273C667.809 134.841 663.548 141.702 655.835 141.702C648.207 141.702 643.775 134.884 643.775 124.273ZM730.675 158.236C751.257 158.236 763.743 144.642 763.743 124.486C763.743 104.287 751.257 90.6932 730.675 90.6932C710.092 90.6932 697.607 104.287 697.607 124.486C697.607 144.642 710.092 158.236 730.675 158.236ZM730.803 142.511C723.089 142.511 718.828 135.182 718.828 124.358C718.828 113.491 723.089 106.119 730.803 106.119C738.26 106.119 742.521 113.491 742.521 124.358C742.521 135.182 738.26 142.511 730.803 142.511ZM789.801 91.5455H768.665L786.733 124.273L767.727 157H788.864L800.582 135.267L812.599 157H833.438L814.474 124.273L832.756 91.5455H811.747L800.582 113.108L789.801 91.5455Z" fill="#2D3748"/>
</svg>
