<svg width="799" height="289" viewBox="0 0 799 289" fill="none" xmlns="http://www.w3.org/2000/svg">
<path d="M281.945 80.4545V159H300.43V110.484H301.082L319.952 158.501H331.764L350.634 110.753H351.286V159H369.771V80.4545H346.261L326.318 129.085H325.398L305.455 80.4545H281.945ZM419.62 133.572C419.62 140.438 415.248 144.273 409.686 144.273C403.934 144.273 400.405 140.361 400.367 133.956V100.091H381.613V137.638C381.651 150.946 389.743 159.767 401.863 159.767C410.684 159.767 417.242 155.241 419.85 148.031H420.463V159H438.336V100.091H419.62V133.572ZM501.703 118.078C500.706 106.419 491.156 99.3239 475.202 99.3239C459.247 99.3239 449.084 106.266 449.161 118.078C449.084 127.129 454.875 132.959 466.649 135.145L476.928 137.101C481.798 138.06 484.023 139.594 484.099 142.202C484.023 145.155 480.724 147.111 475.93 147.111C470.599 147.111 466.994 144.81 466.189 140.514L447.665 140.974C449.007 152.634 459.017 160.112 475.854 160.112C491.616 160.112 503.084 152.25 503.161 140.131C503.084 131.54 497.408 126.439 485.672 124.176L474.32 122.028C469.334 121.031 467.723 119.267 467.761 117.004C467.723 114.013 471.213 112.172 475.547 112.172C480.494 112.172 483.946 114.818 484.483 118.538L501.703 118.078ZM512.394 159H531.148V100.091H512.394V159ZM521.79 93.2259C527.121 93.2259 531.417 89.1989 531.417 84.2514C531.417 79.304 527.121 75.3153 521.79 75.3153C516.498 75.3153 512.164 79.304 512.164 84.2514C512.164 89.1989 516.498 93.2259 521.79 93.2259ZM570.584 160.112C587.152 160.112 597.43 150.486 597.929 135.912H580.402C579.712 142.163 575.953 145.577 570.814 145.577C564.217 145.577 559.922 140.016 559.922 129.545C559.922 119.152 564.256 113.591 570.814 113.591C576.183 113.591 579.673 117.234 580.402 123.256H597.929C597.507 108.759 586.922 99.3239 570.545 99.3239C552.021 99.3239 540.822 111.673 540.822 129.737C540.822 147.724 551.945 160.112 570.584 160.112ZM607.527 159H626.089V149.45H626.664C629.042 154.896 634.335 159.844 643.233 159.844C656.272 159.844 666.781 149.642 666.781 129.584C666.781 108.797 655.659 99.3239 643.348 99.3239C634.028 99.3239 628.927 104.77 626.664 110.178H626.281V80.4545H607.527V159ZM625.897 129.545C625.897 119.919 629.886 113.974 636.751 113.974C643.693 113.974 647.528 120.072 647.528 129.545C647.528 139.057 643.693 145.232 636.751 145.232C629.886 145.232 625.897 139.095 625.897 129.545ZM704.107 160.112C722.631 160.112 733.869 147.878 733.869 129.737C733.869 111.558 722.631 99.3239 704.107 99.3239C685.583 99.3239 674.346 111.558 674.346 129.737C674.346 147.878 685.583 160.112 704.107 160.112ZM704.222 145.96C697.281 145.96 693.445 139.364 693.445 129.622C693.445 119.842 697.281 113.207 704.222 113.207C710.934 113.207 714.769 119.842 714.769 129.622C714.769 139.364 710.934 145.96 704.222 145.96ZM757.321 100.091H738.298L754.56 129.545L737.455 159H756.477L767.024 139.44L777.839 159H796.594L779.527 129.545L795.98 100.091H777.072L767.024 119.497L757.321 100.091Z" fill="#D1DBF6"/>
<path d="M55.5 126.625V207.875" stroke="#5A67D8" stroke-width="20" stroke-linecap="round"/>
<path d="M10.5 94.625V175.875" stroke="#5A67D8" stroke-width="20" stroke-linecap="round"/>
<path d="M118.5 10L38.5 69" stroke="#D1DBF6" stroke-width="20" stroke-linecap="round"/>
<path d="M203.5 76L118.5 134" stroke="#D1DBF6" stroke-width="20" stroke-linecap="round"/>
<path d="M223.664 162L182.5 191" stroke="#D1DBF6" stroke-width="20" stroke-linecap="round"/>
<path d="M223.5 159.119V91.6496C223.5 81.8995 218.6 72.802 210.46 67.4362L123.5 10.1191" stroke="#D1DBF6" stroke-width="19" stroke-linecap="round"/>
<path d="M172.5 243.5C172.5 263.106 156.606 279 137 279C117.394 279 101.5 263.106 101.5 243.5C101.5 223.894 117.394 208 137 208C156.606 208 172.5 223.894 172.5 243.5Z" stroke="#5A67D8" stroke-width="20"/>
<path d="M100.912 240.389V169.322C100.912 159.674 96.1139 150.657 88.1113 145.268L10.5 93" stroke="#5A67D8" stroke-width="19" stroke-linecap="round"/>
</svg>
