<svg width="215" height="260" viewBox="0 0 215 260" fill="none" xmlns="http://www.w3.org/2000/svg">
<path d="M51.3706 115.022V187.567" stroke="#5A67D8" stroke-width="20" stroke-linecap="round"/>
<path d="M10.4546 86.4509V158.996" stroke="#5A67D8" stroke-width="20" stroke-linecap="round"/>
<path d="M113.059 10.8928L40.3198 63.5714" stroke="#7F9CF5" stroke-width="20" stroke-linecap="round"/>
<path d="M190.877 68.0356L113.592 119.821" stroke="#7F9CF5" stroke-width="20" stroke-linecap="round"/>
<path d="M203.48 143.928L166.052 169.821" stroke="#7F9CF5" stroke-width="20" stroke-linecap="round"/>
<path d="M205 143.036V84.6245C205 74.7888 200.015 65.6234 191.757 60.2791L114.076 10" stroke="#7F9CF5" stroke-width="19" stroke-linecap="round"/>
<path d="M156.844 219.375C156.844 236.118 142.971 250 125.473 250C107.976 250 94.103 236.118 94.103 219.375C94.103 202.632 107.976 188.75 125.473 188.75C142.971 188.75 156.844 202.632 156.844 219.375Z" stroke="#5A67D8" stroke-width="20"/>
<path d="M92.6607 216.597V154.954C92.6607 145.22 87.7768 136.135 79.6574 130.766L10.4546 85" stroke="#5A67D8" stroke-width="19" stroke-linecap="round"/>
</svg>
