<svg width="235" height="290" viewBox="0 0 235 290" fill="none" xmlns="http://www.w3.org/2000/svg">
<path d="M55.7125 127.625V208.875" stroke="#5A67D8" stroke-width="20" stroke-linecap="round"/>
<path d="M10.5023 95.625V176.875" stroke="#5A67D8" stroke-width="20" stroke-linecap="round"/>
<path d="M123.876 11L43.5024 70" stroke="#667EEA" stroke-width="20" stroke-linecap="round"/>
<path d="M204.404 77L119.007 135" stroke="#667EEA" stroke-width="20" stroke-linecap="round"/>
<path d="M223.788 160L182.432 189" stroke="#667EEA" stroke-width="20" stroke-linecap="round"/>
<path d="M225.467 159V91.5705C225.467 81.7984 220.546 72.6834 212.375 67.323L125 10" stroke="#667EEA" stroke-width="19" stroke-linecap="round"/>
<path d="M173.306 244.5C173.306 264.062 157.361 280 137.593 280C117.826 280 101.881 264.062 101.881 244.5C101.881 224.938 117.826 209 137.593 209C157.361 209 173.306 224.938 173.306 244.5Z" stroke="#5A67D8" stroke-width="20"/>
<path d="M101.337 241.389V170.362C101.337 160.692 96.5167 151.658 88.4842 146.273L10.5024 94" stroke="#5A67D8" stroke-width="19" stroke-linecap="round"/>
</svg>
