<svg width="45" height="33" viewBox="0 0 45 33" fill="none" xmlns="http://www.w3.org/2000/svg">
<path d="M40.5264 30.6778C40.8588 31.3427 40.3753 32.125 39.632 32.125H32.493C32.1143 32.125 31.768 31.911 31.5986 31.5722L25.7306 19.8361C25.6611 19.6973 25.625 19.5442 25.625 19.3889V1.875C25.625 1.32272 26.0727 0.875 26.625 0.875H43.375C43.9273 0.875 44.375 1.32272 44.375 1.875V18.625C44.375 19.1773 43.9273 19.625 43.375 19.625H36.618C35.8747 19.625 35.3912 20.4073 35.7236 21.0722L40.5264 30.6778ZM15.5264 30.6778C15.8588 31.3427 15.3753 32.125 14.632 32.125H7.49303C7.11426 32.125 6.768 31.911 6.5986 31.5722L0.730569 19.8361C0.661141 19.6973 0.624997 19.5442 0.624997 19.3889V1.875C0.624997 1.32272 1.07271 0.875 1.625 0.875H18.375C18.9273 0.875 19.375 1.32272 19.375 1.875V18.625C19.375 19.1773 18.9273 19.625 18.375 19.625H11.618C10.8746 19.625 10.3912 20.4073 10.7236 21.0722L15.5264 30.6778Z" fill="#667EEA"/>
</svg>
