<svg width="1440" height="714" viewBox="0 0 1440 714" fill="none" xmlns="http://www.w3.org/2000/svg">
<rect width="1440" height="714" fill="white"/>
<g clip-path="url(#clip0)">
<g clip-path="url(#clip1)">
<rect width="1509" height="348" transform="translate(-69 38)" fill="white"/>
<path fill-rule="evenodd" clip-rule="evenodd" d="M-4 275.124L52.7917 237.774C109.583 200.423 223.167 125.723 336.75 81.1099C450.333 36.497 563.917 21.9719 677.5 59.3222C791.083 96.6725 904.667 185.898 1018.25 246.074C1131.83 305.212 1245.42 335.299 1302.21 349.825L1359 365.387V410H1302.21C1245.42 410 1131.83 410 1018.25 410C904.667 410 791.083 410 677.5 410C563.917 410 450.333 410 336.75 410C223.167 410 109.583 410 52.7917 410H-4V275.124Z" fill="#667EEA" fill-opacity="0.68"/>
<path fill-rule="evenodd" clip-rule="evenodd" d="M-115 14L-47.7971 76.649C17.9759 140.722 152.382 268.868 285.357 308.735C418.333 348.603 551.309 300.192 685.715 236.119C818.691 173.47 951.667 93.7351 1084.64 60.9868C1219.05 29.6623 1352.02 45.3245 1417.8 53.8675L1485 60.9868V444H1417.8C1352.02 444 1219.05 444 1084.64 444C951.667 444 818.691 444 685.715 444C551.309 444 418.333 444 285.357 444C152.382 444 17.9759 444 -47.7971 444H-115V14Z" fill="#7F9CF5"/>
<path fill-rule="evenodd" clip-rule="evenodd" d="M-69 208.367L-0.621088 231.325C66.303 253.285 203.061 298.204 338.364 292.215C473.667 287.224 608.97 231.325 745.727 203.376C881.03 175.427 1016.33 175.427 1151.64 208.367C1288.39 242.305 1423.7 309.184 1490.62 343.122L1559 376.062V410H1490.62C1423.7 410 1288.39 410 1151.64 410C1016.33 410 881.03 410 745.727 410C608.97 410 473.667 410 338.364 410C203.061 410 66.303 410 -0.621088 410H-69V208.367Z" fill="#667EEA"/>
</g>
</g>
<g clip-path="url(#clip2)">
<g clip-path="url(#clip3)">
<rect width="1509" height="348" transform="translate(1509 675) rotate(-180)" fill="white"/>
<path fill-rule="evenodd" clip-rule="evenodd" d="M1444 437.876L1387.21 475.226C1330.42 512.577 1216.83 587.277 1103.25 631.89C989.667 676.503 876.083 691.028 762.5 653.678C648.917 616.327 535.333 527.102 421.75 466.926C308.167 407.788 194.583 377.701 137.792 363.175L81 347.613V303H137.792C194.583 303 308.167 303 421.75 303C535.333 303 648.917 303 762.5 303C876.083 303 989.667 303 1103.25 303C1216.83 303 1330.42 303 1387.21 303H1444V437.876Z" fill="#667EEA" fill-opacity="0.68"/>
<path fill-rule="evenodd" clip-rule="evenodd" d="M1555 699L1487.8 636.351C1422.02 572.278 1287.62 444.132 1154.64 404.265C1021.67 364.397 888.691 412.808 754.285 476.881C621.309 539.53 488.333 619.265 355.357 652.013C220.952 683.338 87.9759 667.675 22.2029 659.132L-45 652.013V269H22.2029C87.9759 269 220.952 269 355.357 269C488.333 269 621.309 269 754.285 269C888.691 269 1021.67 269 1154.64 269C1287.62 269 1422.02 269 1487.8 269H1555V699Z" fill="#7F9CF5"/>
<path fill-rule="evenodd" clip-rule="evenodd" d="M1509 504.633L1440.62 481.675C1373.7 459.715 1236.94 414.796 1101.64 420.785C966.333 425.776 831.03 481.675 694.273 509.624C558.97 537.573 423.667 537.573 288.364 504.633C151.606 470.695 16.3029 403.816 -50.6211 369.878L-119 336.938V303H-50.6211C16.3029 303 151.606 303 288.364 303C423.667 303 558.97 303 694.273 303C831.03 303 966.333 303 1101.64 303C1236.94 303 1373.7 303 1440.62 303H1509V504.633Z" fill="#667EEA"/>
</g>
</g>
<defs>
<clipPath id="clip0">
<rect width="1440" height="348" fill="white" transform="translate(0 38)"/>
</clipPath>
<clipPath id="clip1">
<rect width="1509" height="348" fill="white" transform="translate(-69 38)"/>
</clipPath>
<clipPath id="clip2">
<rect width="1440" height="348" fill="white" transform="translate(1440 675) rotate(-180)"/>
</clipPath>
<clipPath id="clip3">
<rect width="1509" height="348" fill="white" transform="translate(1509 675) rotate(-180)"/>
</clipPath>
</defs>
</svg>
