<svg width="1440" height="372" viewBox="0 0 1440 372" fill="none" xmlns="http://www.w3.org/2000/svg">
<g clip-path="url(#clip0)">
<path fill-rule="evenodd" clip-rule="evenodd" d="M0 237.124L59.5 199.774C119 162.423 238 87.7228 357 43.1099C476 -1.50296 595 -16.0281 714 21.3222C833 58.6725 952 147.898 1071 208.074C1190 267.212 1309 297.299 1368.5 311.825L1428 327.387V372H1368.5C1309 372 1190 372 1071 372C952 372 833 372 714 372C595 372 476 372 357 372C238 372 119 372 59.5 372H0V237.124Z" fill="#4C51BF" fill-opacity="0.9"/>
<path fill-rule="evenodd" clip-rule="evenodd" d="M0 -24L60.4826 33.6954C119.678 92.702 240.643 210.715 360.322 247.43C480 284.146 599.678 239.563 720.643 180.556C840.322 122.861 960 49.4305 1079.68 19.2715C1200.64 -9.57616 1320.32 4.84768 1379.52 12.7152L1440 19.2715V372H1379.52C1320.32 372 1200.64 372 1079.68 372C960 372 840.322 372 720.643 372C599.678 372 480 372 360.322 372C240.643 372 119.678 372 60.4826 372H0V-24Z" fill="#7F9CF5"/>
<path fill-rule="evenodd" clip-rule="evenodd" d="M0 170.367L60.4826 193.325C119.678 215.285 240.643 260.204 360.322 254.215C480 249.224 599.678 193.325 720.643 165.376C840.322 137.427 960 137.427 1079.68 170.367C1200.64 204.305 1320.32 271.184 1379.52 305.122L1440 338.062V372H1379.52C1320.32 372 1200.64 372 1079.68 372C960 372 840.322 372 720.643 372C599.678 372 480 372 360.322 372C240.643 372 119.678 372 60.4826 372H0V170.367Z" fill="#667EEA"/>
</g>
<defs>
<clipPath id="clip0">
<rect width="1440" height="372" fill="white"/>
</clipPath>
</defs>
</svg>
