<svg width="1440" height="372" viewBox="0 0 1440 372" fill="none" xmlns="http://www.w3.org/2000/svg">
<path fill-rule="evenodd" clip-rule="evenodd" d="M0 237.124L59.5 199.774C119 162.423 238 87.7228 357 43.1099C476 -1.50296 595 -16.0281 714 21.3222C833 58.6725 952 147.898 1071 208.074C1190 267.212 1309 297.299 1368.5 311.825L1428 327.387V372H1368.5C1309 372 1190 372 1071 372C952 372 833 372 714 372C595 372 476 372 357 372C238 372 119 372 59.5 372H0V237.124Z" fill="#5A67D8"/>
<path fill-rule="evenodd" clip-rule="evenodd" d="M0 0L60.4826 54.1987C119.678 109.629 240.643 220.49 360.322 254.98C480 289.47 599.678 247.589 720.643 192.159C840.322 137.96 960 68.9801 1079.68 40.649C1200.64 13.5497 1320.32 27.0993 1379.52 34.4901L1440 40.649V372H1379.52C1320.32 372 1200.64 372 1079.68 372C960 372 840.322 372 720.643 372C599.678 372 480 372 360.322 372C240.643 372 119.678 372 60.4826 372H0V0Z" fill="#5A67D8" fill-opacity="0.6"/>
<path fill-rule="evenodd" clip-rule="evenodd" d="M0 41.571L60.4826 79.1941C119.678 115.181 240.643 188.792 360.322 178.977C480 170.798 599.678 79.1941 720.643 33.3921C840.322 -12.41 960 -12.41 1079.68 41.571C1200.64 97.1878 1320.32 206.786 1379.52 262.402L1440 316.383V372H1379.52C1320.32 372 1200.64 372 1079.68 372C960 372 840.322 372 720.643 372C599.678 372 480 372 360.322 372C240.643 372 119.678 372 60.4826 372H0V41.571Z" fill="#667EEA" fill-opacity="0.75"/>
</svg>
