<svg width="1440" height="200" viewBox="0 0 1440 200" fill="none" xmlns="http://www.w3.org/2000/svg">
<g clip-path="url(#clip0)">
<path fill-rule="evenodd" clip-rule="evenodd" d="M-116 89.7018L-47.7917 73.1208C20.4167 57.6452 156.833 25.5887 293.25 33.3265C429.667 42.1697 566.083 89.7018 702.5 112.915C838.917 137.234 975.333 137.234 1111.75 105.177C1248.17 73.1208 1384.58 10.1131 1452.79 -21.9434L1521 -54V376H1452.79C1384.58 376 1248.17 376 1111.75 376C975.333 376 838.917 376 702.5 376C566.083 376 429.667 376 293.25 376C156.833 376 20.4167 376 -47.7917 376H-116V89.7018Z" stroke="#5A67D8" stroke-width="5"/>
<path fill-rule="evenodd" clip-rule="evenodd" d="M-51 0L8.26667 27.2699C67.5333 54.0051 186.067 108.01 304.6 115.496C423.133 123.517 541.667 85.018 660.2 85.018C778.733 85.018 897.267 123.517 1015.8 150.252C1134.33 176.987 1252.87 192.494 1371.4 165.758C1489.93 138.488 1608.47 69.5116 1667.73 34.7558L1727 0V208H1667.73C1608.47 208 1489.93 208 1371.4 208C1252.87 208 1134.33 208 1015.8 208C897.267 208 778.733 208 660.2 208C541.667 208 423.133 208 304.6 208C186.067 208 67.5333 208 8.26667 208H-51V0Z" stroke="#5A67D8" stroke-width="5"/>
<path fill-rule="evenodd" clip-rule="evenodd" d="M-101 268L-44.2667 230.373C12.4667 193.483 125.933 118.967 239.4 108.638C352.867 97.5707 466.333 150.692 579.8 150.692C693.267 150.692 806.733 97.5707 920.2 60.6812C1033.67 23.7918 1147.13 2.39588 1260.6 39.2853C1374.07 76.9126 1487.53 172.087 1544.27 220.044L1601 268V-19H1544.27C1487.53 -19 1374.07 -19 1260.6 -19C1147.13 -19 1033.67 -19 920.2 -19C806.733 -19 693.267 -19 579.8 -19C466.333 -19 352.867 -19 239.4 -19C125.933 -19 12.4667 -19 -44.2667 -19H-101V268Z" stroke="#5A67D8" stroke-opacity="0.75" stroke-width="5"/>
<path fill-rule="evenodd" clip-rule="evenodd" d="M-148 157.647L-75.5968 135.634C-3.19365 114.915 142.677 72.183 287.484 72.183C433.355 72.183 578.161 114.915 724.032 147.288C868.839 178.366 1013.65 199.085 1159.52 168.007C1304.32 135.634 1450.19 51.4644 1522.6 8.7322L1595 -34V348H1522.6C1450.19 348 1304.32 348 1159.52 348C1013.65 348 868.839 348 724.032 348C578.161 348 433.355 348 287.484 348C142.677 348 -3.19365 348 -75.5968 348H-148V157.647Z" stroke="#7F9CF5" stroke-width="5"/>
</g>
<defs>
<clipPath id="clip0">
<rect width="1440" height="200" fill="white"/>
</clipPath>
</defs>
</svg>
